<svg width="33" height="33" viewBox="0 0 33 33" fill="none" xmlns="http://www.w3.org/2000/svg">
<path fill-rule="evenodd" clip-rule="evenodd" d="M5.86896 13.251V7.25404C5.86896 6.44818 6.77335 5.97331 7.43673 6.43086L13.3137 10.4843C13.4806 10.5995 13.6786 10.6611 13.8814 10.6611H19.8708C20.0735 10.6611 20.2714 10.5996 20.4382 10.4846L26.3156 6.43448C26.979 5.97733 27.883 6.45224 27.883 7.25791V13.251V18.5076C27.883 23.4782 23.8536 27.5076 18.883 27.5076H14.869C9.89839 27.5076 5.86896 23.4782 5.86896 18.5076V13.251ZM14.5424 18.7182C14.5424 17.8735 13.8576 17.1888 13.0129 17.1888C12.1682 17.1888 11.4834 17.8735 11.4834 18.7182C11.4834 19.5629 12.1682 20.2477 13.0129 20.2477C13.8576 20.2477 14.5424 19.5629 14.5424 18.7182ZM20.7391 17.1888C21.5838 17.1888 22.2686 17.8735 22.2686 18.7182C22.2686 19.5629 21.5838 20.2477 20.7391 20.2477C19.8944 20.2477 19.2096 19.5629 19.2096 18.7182C19.2096 17.8735 19.8944 17.1888 20.7391 17.1888Z" fill="#313B41"/>
</svg>
